<svg xmlns="http://www.w3.org/2000/svg" xmlns:xlink="http://www.w3.org/1999/xlink" version="1.1" id="Calque_1" x="0px" y="0px" viewBox="0 0 939.4 171.4" enable-background="new 0 0 939.4 171.4" xml:space="preserve">
  <g id="XMLID_53_">
    <path id="XMLID_133_" fill="#231F20" d="M29 2.3l33.4 112.3V2.3h25.2v167.1H60.6l-34.7-107v107H0.7V2.3H29z"/>
    <path id="XMLID_135_" fill="#231F20" d="M96.1 169.4V2.3h71.7v25.3h-46.5v45.6h34v25.3h-34v45.6h46.5v25.3H96.1z"/>
    <path id="XMLID_137_" fill="#231F20" d="M203.5 27.7h-26.8V2.4h78.6v25.3h-26.7v141.7h-25.2V27.7z"/>
    <path id="XMLID_139_" fill="#231F20" d="M289.6 98.6v70.8h-25.2V2.4h25.2v70.9H320V2.4h25.2v167H320V98.6H289.6z"/>
    <path id="XMLID_141_" fill="#231F20" d="M353.7 169.4V2.3h71.7v25.3h-46.5v45.6h34v25.3h-34v45.6h46.5v25.3H353.7z"/>
    <path id="XMLID_143_" fill="#231F20" d="M474 2.4c14 0 24.3 3.9 30.9 11.6 5.8 6.8 8.7 16.2 8.7 28.3v24.3c0 11.8-4.5 21.8-13.5 30l18.7 72.9h-27.2l-15.3-62.9c-0.7 0-1.5 0-2.3 0h-14.5v62.9h-25.2V2.4H474zM489.1 42.7c0-9.7-4.8-14.5-14.4-14.5h-15.2v53.4h15.2c4 0 7.4-1.4 10.2-4.3 2.8-2.8 4.2-6.3 4.2-10.3V42.7z"/>
    <path id="XMLID_146_" fill="#231F20" d="M581.7 2.3l33.4 112.3V2.3h25.2v167.1h-27.1l-34.7-107v107h-25.2V2.3H581.7z"/>
    <path id="XMLID_148_" fill="#231F20" d="M647.9 169.4V2.3h71.7v25.3h-46.5v45.6h34v25.3h-34v45.6h46.5v25.3H647.9z"/>
    <path id="XMLID_150_" fill="#231F20" d="M828.3 2.4h26.4l-26.1 167h-24l-14.4-91.9 -13.4 91.9h-24.1l-28-167h26.4l13.2 89.4 12.1-89.4h26.4L816 91.8 828.3 2.4z"/>
    <path id="XMLID_152_" fill="#231F20" d="M939.4 127.8c0.2 11.6-2.8 21.6-9.1 29.9 -4.1 5.6-9.9 9.6-17.3 11.9 -4 1.2-8.7 1.9-14 1.9 -9.9 0-18-2.4-24.5-7.3 -5.4-4-9.7-9.4-12.9-16.3 -3.2-6.9-5-14.8-5.5-23.7l24-1.7c1.1 9.7 3.6 16.8 7.7 21.2 3 3.3 6.5 4.9 10.4 4.7 5.5-0.2 9.9-2.9 13.2-8.1 1.7-2.6 2.5-6.3 2.5-11.1 0-6.9-3.2-13.8-9.5-20.7 -5-4.7-12.4-11.8-22.4-21.2 -8.4-8.1-14.3-15.3-17.7-21.7 -3.7-7.2-5.6-15-5.6-23.5 0-15.2 5.1-26.7 15.3-34.6 6.3-4.7 14.1-7.1 23.5-7.1 9 0 16.7 2 23.1 6 5 3.1 9 7.5 12.1 13.1 3.1 5.6 4.9 12 5.5 19.3l-24.1 4.4c-0.7-6.8-2.7-12.2-5.9-16 -2.3-2.8-5.6-4.1-10-4.1 -4.6 0-8.1 2-10.5 6.1 -2 3.3-2.9 7.4-2.9 12.3 0 7.6 3.3 15.4 9.9 23.3 2.5 3 6.2 6.6 11.2 10.7 5.9 4.9 9.7 8.3 11.6 10.3 6.2 6.2 11 12.4 14.4 18.4 1.6 2.8 2.9 5.5 3.9 7.9C938.1 117.8 939.3 123.1 939.4 127.8z"/>
  </g>
  <g id="XMLID_132_"/>
  <g id="XMLID_154_"/>
  <g id="XMLID_155_"/>
  <g id="XMLID_156_"/>
  <g id="XMLID_157_"/>
  <g id="XMLID_158_"/>
  <g id="XMLID_159_"/>
  <g id="XMLID_160_"/>
  <g id="XMLID_161_"/>
  <g id="XMLID_162_"/>
  <g id="XMLID_163_"/>
  <g id="XMLID_164_"/>
  <g id="XMLID_165_"/>
  <g id="XMLID_166_"/>
  <g id="XMLID_167_"/>
</svg>
